<?xml version="1.0" encoding="UTF-8"?>
<!DOCTYPE svg PUBLIC "-//W3C//DTD SVG 1.1//EN" "http://www.w3.org/Graphics/SVG/1.1/DTD/svg11.dtd">
<!-- Creator: CorelDRAW X7 -->
<svg xmlns="http://www.w3.org/2000/svg" xml:space="preserve" width="20px" height="20px" version="1.1" style="shape-rendering:geometricPrecision; text-rendering:geometricPrecision; image-rendering:optimizeQuality; fill-rule:evenodd; clip-rule:evenodd"
viewBox="0 0 10 10"
 xmlns:xlink="http://www.w3.org/1999/xlink">
 <defs>
  <style type="text/css">
   <![CDATA[
    .fil2 {fill:none}
    .fil1 {fill:#373435}
    .fil0 {fill:#0077FF}
   ]]>
  </style>
 </defs>
 <g id="Слой_x0020_1">
  <metadata id="CorelCorpID_0Corel-Layer"/>
  <g id="_2884765727152">
   <g>
    <path class="fil0" d="M5 4l1 0 -2 3 -3 -4 1 0 2 3 1 -2zm-3 -1l2 3 -2 -3zm-1 1l-1 0 2 3 1 0 -2 -3zm5 -1l-1 0 -2 2 1 0 2 -2z"/>
   </g>
   <g>
    <path class="fil1" d="M6 3l4 0 0 1 -5 0 1 -1zm-2 4l3 0 2 -2 -2 0 0 1 0 0 0 1 -2 0 -1 0zm1 -3l1 -1 -1 1zm-1 3l1 0 -1 0z"/>
   </g>
  </g>
  <rect class="fil2" width="10.3738" height="10.3738"/>
 </g>
</svg>
